{
  "accessors": [
    {
      "bufferView": 2,
      "componentType": 5126,
      "count": 556,
      "max": [
        11.492400169372559,
        4.7192997932434082,
        3.7941999435424805
      ],
      "min": [
        -46.693599700927734,
        -4.7192997932434082,
        -27.419500350952148
      ],
      "type": "VEC3"
    },
    {
      "bufferView": 2,
      "byteOffset": 6672,
      "componentType": 5126,
      "count": 556,
      "max": [
        0.99981564283370972,
        1,
        0.97999954223632812
      ],
      "min": [
        -0.99981564283370972,
        -1,
        -0.49180072546005249
      ],
      "type": "VEC3"
    },
    {
      "bufferView": 1,
      "componentType": 5126,
      "count": 556,
      "max": [
        29.089399337768555,
        22.972799301147461
      ],
      "min": [
        -29.148799896240234,
        -19.747200012207031
      ],
      "type": "VEC2"
    },
    {
      "bufferView": 0,
      "componentType": 5125,
      "count": 3180,
      "max": [
        555
      ],
      "min": [
        0
      ],
      "type": "SCALAR"
    },
    {
      "bufferView": 2,
      "byteOffset": 13344,
      "componentType": 5126,
      "count": 3056,
      "max": [
        13.974699974060059,
        10.637599945068359,
        18.057500839233398
      ],
      "min": [
        -48.256301879882812,
        -10.622599601745605,
        -43.984401702880859
      ],
      "type": "VEC3"
    },
    {
      "bufferView": 2,
      "byteOffset": 50016,
      "componentType": 5126,
      "count": 3056,
      "max": [
        0.99977225065231323,
        1,
        0.99926638603210449
      ],
      "min": [
        -0.9996911883354187,
        -1,
        -0.99926245212554932
      ],
      "type": "VEC3"
    },
    {
      "bufferView": 1,
      "byteOffset": 4448,
      "componentType": 5126,
      "count": 3056,
      "max": [
        21.603300094604492,
        -0
      ],
      "min": [
        -29.291900634765625,
        -30.065799713134766
      ],
      "type": "VEC2"
    },
    {
      "bufferView": 0,
      "byteOffset": 12720,
      "componentType": 5125,
      "count": 16476,
      "max": [
        3055
      ],
      "min": [
        0
      ],
      "type": "SCALAR"
    },
    {
      "bufferView": 2,
      "byteOffset": 86688,
      "componentType": 5126,
      "count": 2796,
      "max": [
        13.096699714660645,
        10.637599945068359,
        43.125
      ],
      "min": [
        -46.866401672363281,
        -10.622599601745605,
        -7.2487998008728027
      ],
      "type": "VEC3"
    },
    {
      "bufferView": 2,
      "byteOffset": 120240,
      "componentType": 5126,
      "count": 2796,
      "max": [
        0.99972599744796753,
        1,
        0.99851381778717041
      ],
      "min": [
        -0.99987781047821045,
        -1,
        -0.99768668413162231
      ],
      "type": "VEC3"
    },
    {
      "bufferView": 1,
      "byteOffset": 28896,
      "componentType": 5126,
      "count": 2796,
      "max": [
        1,
        -0
      ],
      "min": [
        0,
        -1
      ],
      "type": "VEC2"
    },
    {
      "bufferView": 0,
      "byteOffset": 78624,
      "componentType": 5125,
      "count": 14685,
      "max": [
        2795
      ],
      "min": [
        0
      ],
      "type": "SCALAR"
    },
    {
      "bufferView": 2,
      "byteOffset": 153792,
      "componentType": 5126,
      "count": 5238,
      "max": [
        59.147800445556641,
        -0.88289999961853027,
        41.256801605224609
      ],
      "min": [
        3.11680006980896,
        -1.8380999565124512,
        -6.7589998245239258
      ],
      "type": "VEC3"
    },
    {
      "bufferView": 2,
      "byteOffset": 216648,
      "componentType": 5126,
      "count": 5238,
      "max": [
        1,
        1,
        0.99998199939727783
      ],
      "min": [
        -1,
        -1,
        -0.99996638298034668
      ],
      "type": "VEC3"
    },
    {
      "bufferView": 1,
      "byteOffset": 51264,
      "componentType": 5126,
      "count": 5238,
      "max": [
        21.65679931640625,
        24.117799758911133
      ],
      "min": [
        -34.374198913574219,
        -23.898000717163086
      ],
      "type": "VEC2"
    },
    {
      "bufferView": 0,
      "byteOffset": 137364,
      "componentType": 5125,
      "count": 31416,
      "max": [
        5237
      ],
      "min": [
        0
      ],
      "type": "SCALAR"
    },
    {
      "bufferView": 2,
      "byteOffset": 279504,
      "componentType": 5126,
      "count": 6,
      "max": [
        7.634699821472168,
        -1.1958999633789062,
        43.125
      ],
      "min": [
        7.4987001419067383,
        -1.5341999530792236,
        43.099601745605469
      ],
      "type": "VEC3"
    },
    {
      "bufferView": 2,
      "byteOffset": 279576,
      "componentType": 5126,
      "count": 6,
      "max": [
        0.56047886610031128,
        0.22880253195762634,
        0.99851381778717041
      ],
      "min": [
        -0.064102113246917725,
        -0.22880253195762634,
        0.81770908832550049
      ],
      "type": "VEC3"
    },
    {
      "bufferView": 1,
      "byteOffset": 93168,
      "componentType": 5126,
      "count": 6,
      "max": [
        0.96929997205734253,
        -0.3734000027179718
      ],
      "min": [
        0.88050001859664917,
        -0.62660002708435059
      ],
      "type": "VEC2"
    },
    {
      "bufferView": 0,
      "byteOffset": 263028,
      "componentType": 5125,
      "count": 12,
      "max": [
        5
      ],
      "min": [
        0
      ],
      "type": "SCALAR"
    },
    {
      "bufferView": 2,
      "byteOffset": 279648,
      "componentType": 5126,
      "count": 1596,
      "max": [
        7.3147001266479492,
        -1.0139000415802002,
        44.873298645019531
      ],
      "min": [
        6.3491997718811035,
        -1.7160999774932861,
        42.842998504638672
      ],
      "type": "VEC3"
    },
    {
      "bufferView": 2,
      "byteOffset": 298800,
      "componentType": 5126,
      "count": 1596,
      "max": [
        0.98967975378036499,
        0.99768346548080444,
        0.99650776386260986
      ],
      "min": [
        -0.9979369044303894,
        -0.997661292552948,
        -0.99650776386260986
      ],
      "type": "VEC3"
    },
    {
      "bufferView": 1,
      "byteOffset": 93216,
      "componentType": 5126,
      "count": 1596,
      "max": [
        0.76349997520446777,
        -0.23720000684261322
      ],
      "min": [
        0.23899999260902405,
        -0.76279997825622559
      ],
      "type": "VEC2"
    },
    {
      "bufferView": 0,
      "byteOffset": 263076,
      "componentType": 5125,
      "count": 2553,
      "max": [
        1595
      ],
      "min": [
        0
      ],
      "type": "SCALAR"
    }
  ],
  "asset": {
    "extras": {
      "author": "IronEqual (https://sketchfab.com/ie-niels)",
      "license": "CC-BY-4.0 (http://creativecommons.org/licenses/by/4.0/)",
      "source": "https://sketchfab.com/3d-models/headphones-from-poly-by-google-ca4fef128a3849199feb300911161dc3",
      "title": "Headphones from Poly by Google"
    },
    "generator": "Sketchfab-9.98.0",
    "version": "2.0"
  },
  "bufferViews": [
    {
      "buffer": 0,
      "byteLength": 273288,
      "byteOffset": 0,
      "name": "floatBufferViews",
      "target": 34963
    },
    {
      "buffer": 0,
      "byteLength": 105984,
      "byteOffset": 273288,
      "byteStride": 8,
      "name": "floatBufferViews",
      "target": 34962
    },
    {
      "buffer": 0,
      "byteLength": 317952,
      "byteOffset": 379272,
      "byteStride": 12,
      "name": "floatBufferViews",
      "target": 34962
    }
  ],
  "buffers": [
    {
      "byteLength": 697224,
      "uri": "scene.bin"
    }
  ],
  "materials": [
    {
      "doubleSided": true,
      "emissiveFactor": [
        0,
        0,
        0
      ],
      "name": "Material__271",
      "pbrMetallicRoughness": {
        "baseColorFactor": [
          0.58799999999999997,
          0.58799999999999997,
          0.58799999999999997,
          1
        ],
        "metallicFactor": 0,
        "roughnessFactor": 0.96994800000000003
      }
    },
    {
      "doubleSided": true,
      "emissiveFactor": [
        0,
        0,
        0
      ],
      "name": "01___Default",
      "pbrMetallicRoughness": {
        "baseColorFactor": [
          0.0077999999999999996,
          0.0077999999999999996,
          0.0077999999999999996,
          1
        ],
        "metallicFactor": 0,
        "roughnessFactor": 0.96994800000000003
      }
    },
    {
      "doubleSided": true,
      "emissiveFactor": [
        0,
        0,
        0
      ],
      "name": "03___Default",
      "pbrMetallicRoughness": {
        "baseColorFactor": [
          0.45879999999999999,
          0,
          0,
          1
        ],
        "metallicFactor": 0,
        "roughnessFactor": 0.96994800000000003
      }
    },
    {
      "doubleSided": true,
      "emissiveFactor": [
        0,
        0,
        0
      ],
      "name": "09___Default",
      "pbrMetallicRoughness": {
        "baseColorFactor": [
          0.29409999999999997,
          0.29409999999999997,
          0.29409999999999997,
          1
        ],
        "metallicFactor": 0,
        "roughnessFactor": 0.96994800000000003
      }
    },
    {
      "doubleSided": true,
      "emissiveFactor": [
        0,
        0,
        0
      ],
      "name": "Material__438",
      "pbrMetallicRoughness": {
        "baseColorFactor": [
          0.58799999999999997,
          0.58799999999999997,
          0.58799999999999997,
          1
        ],
        "metallicFactor": 0,
        "roughnessFactor": 0.96994800000000003
      }
    },
    {
      "doubleSided": true,
      "emissiveFactor": [
        0,
        0,
        0
      ],
      "name": "02___Default",
      "pbrMetallicRoughness": {
        "baseColorFactor": [
          0,
          0,
          0,
          1
        ],
        "metallicFactor": 0,
        "roughnessFactor": 0.96994800000000003
      }
    }
  ],
  "meshes": [
    {
      "primitives": [
        {
          "attributes": {
            "NORMAL": 1,
            "POSITION": 0,
            "TEXCOORD_0": 2
          },
          "indices": 3,
          "material": 0,
          "mode": 4
        }
      ]
    },
    {
      "primitives": [
        {
          "attributes": {
            "NORMAL": 5,
            "POSITION": 4,
            "TEXCOORD_0": 6
          },
          "indices": 7,
          "material": 1,
          "mode": 4
        }
      ]
    },
    {
      "primitives": [
        {
          "attributes": {
            "NORMAL": 9,
            "POSITION": 8,
            "TEXCOORD_0": 10
          },
          "indices": 11,
          "material": 2,
          "mode": 4
        }
      ]
    },
    {
      "primitives": [
        {
          "attributes": {
            "NORMAL": 13,
            "POSITION": 12,
            "TEXCOORD_0": 14
          },
          "indices": 15,
          "material": 3,
          "mode": 4
        }
      ]
    },
    {
      "primitives": [
        {
          "attributes": {
            "NORMAL": 17,
            "POSITION": 16,
            "TEXCOORD_0": 18
          },
          "indices": 19,
          "material": 4,
          "mode": 4
        }
      ]
    },
    {
      "primitives": [
        {
          "attributes": {
            "NORMAL": 21,
            "POSITION": 20,
            "TEXCOORD_0": 22
          },
          "indices": 23,
          "material": 5,
          "mode": 4
        }
      ]
    }
  ],
  "nodes": [
    {
      "children": [
        1
      ],
      "name": "RootNode (gltf orientation matrix)",
      "rotation": [
        -0.70710678118654746,
        -0,
        -0,
        0.70710678118654757
      ]
    },
    {
      "children": [
        2
      ],
      "name": "RootNode (model correction matrix)"
    },
    {
      "children": [
        3
      ],
      "name": "root"
    },
    {
      "children": [
        4
      ],
      "matrix": [
        1,
        0,
        0,
        0,
        0,
        2.2204460492503131e-16,
        1,
        0,
        0,
        -1,
        2.2204460492503131e-16,
        0,
        0,
        0,
        0,
        1
      ],
      "name": "GLTF_SceneRootNode"
    },
    {
      "children": [
        5,
        6,
        7,
        8,
        9,
        10
      ],
      "name": "node-0_0"
    },
    {
      "mesh": 0,
      "name": ""
    },
    {
      "mesh": 1,
      "name": ""
    },
    {
      "mesh": 2,
      "name": ""
    },
    {
      "mesh": 3,
      "name": ""
    },
    {
      "mesh": 4,
      "name": ""
    },
    {
      "mesh": 5,
      "name": ""
    }
  ],
  "scene": 0,
  "scenes": [
    {
      "name": "OSG_Scene",
      "nodes": [
        0
      ]
    }
  ]
}

