{
  "accessors": [
    {
      "bufferView": 2,
      "componentType": 5126,
      "count": 1226,
      "max": [
        1.1104001998901367,
        8.2085628509521484,
        2.4952850341796875
      ],
      "min": [
        -1.1104023456573486,
        4.1188135147094727,
        -2.5654463768005371
      ],
      "type": "VEC3"
    },
    {
      "bufferView": 2,
      "byteOffset": 14712,
      "componentType": 5126,
      "count": 1226,
      "max": [
        1,
        0.99996095895767212,
        0.99864828586578369
      ],
      "min": [
        -1,
        -0.997630774974823,
        -0.99888229370117188
      ],
      "type": "VEC3"
    },
    {
      "bufferView": 3,
      "componentType": 5126,
      "count": 1226,
      "max": [
        1,
        0.99941504001617432,
        0.99996101856231689,
        1
      ],
      "min": [
        -1,
        -0.9980500340461731,
        -0.9905129075050354,
        -1
      ],
      "type": "VEC4"
    },
    {
      "bufferView": 1,
      "componentType": 5126,
      "count": 1226,
      "max": [
        0.97771978378295898,
        0.98313236236572266
      ],
      "min": [
        0.0078125,
        0.0078125
      ],
      "type": "VEC2"
    },
    {
      "bufferView": 0,
      "componentType": 5125,
      "count": 4476,
      "max": [
        1225
      ],
      "min": [
        0
      ],
      "type": "SCALAR"
    },
    {
      "bufferView": 2,
      "byteOffset": 29424,
      "componentType": 5126,
      "count": 265,
      "max": [
        1.608123779296875,
        4.6887059211730957,
        1.7348810434341431
      ],
      "min": [
        -1.6081256866455078,
        1.3976742029190063,
        -2.4577710628509521
      ],
      "type": "VEC3"
    },
    {
      "bufferView": 2,
      "byteOffset": 32604,
      "componentType": 5126,
      "count": 265,
      "max": [
        0.99999761581420898,
        0.99870604276657104,
        0.99575626850128174
      ],
      "min": [
        -0.99995255470275879,
        -0.99879539012908936,
        -0.99534869194030762
      ],
      "type": "VEC3"
    },
    {
      "bufferView": 3,
      "byteOffset": 19616,
      "componentType": 5126,
      "count": 265,
      "max": [
        0.99977511167526245,
        0.30723336338996887,
        0.987285315990448,
        1
      ],
      "min": [
        -0.99793112277984619,
        -0.99733811616897583,
        -0.98917776346206665,
        1
      ],
      "type": "VEC4"
    },
    {
      "bufferView": 1,
      "byteOffset": 9808,
      "componentType": 5126,
      "count": 265,
      "max": [
        0.83365523815155029,
        0.68327319622039795
      ],
      "min": [
        0.0078125,
        0.0078125
      ],
      "type": "VEC2"
    },
    {
      "bufferView": 0,
      "byteOffset": 17904,
      "componentType": 5125,
      "count": 1008,
      "max": [
        264
      ],
      "min": [
        0
      ],
      "type": "SCALAR"
    },
    {
      "bufferView": 2,
      "byteOffset": 35784,
      "componentType": 5126,
      "count": 1205,
      "max": [
        -0.6837843656539917,
        3.2926626205444336,
        3.0771870613098145
      ],
      "min": [
        -3.1610627174377441,
        0.046935811638832092,
        0.67813456058502197
      ],
      "type": "VEC3"
    },
    {
      "bufferView": 2,
      "byteOffset": 50244,
      "componentType": 5126,
      "count": 1205,
      "max": [
        0.98985147476196289,
        0.98526161909103394,
        0.99681997299194336
      ],
      "min": [
        -0.99663162231445312,
        -0.98444348573684692,
        -0.99406754970550537
      ],
      "type": "VEC3"
    },
    {
      "bufferView": 3,
      "byteOffset": 23856,
      "componentType": 5126,
      "count": 1205,
      "max": [
        0.97406995296478271,
        0.99328869581222534,
        0.99099403619766235,
        1
      ],
      "min": [
        -0.99925839900970459,
        -0.9983600378036499,
        -0.99501907825469971,
        1
      ],
      "type": "VEC4"
    },
    {
      "bufferView": 1,
      "byteOffset": 11928,
      "componentType": 5126,
      "count": 1205,
      "max": [
        0.98478305339813232,
        0.98961758613586426
      ],
      "min": [
        0.0096898972988128662,
        0.012443423271179199
      ],
      "type": "VEC2"
    },
    {
      "bufferView": 0,
      "byteOffset": 21936,
      "componentType": 5125,
      "count": 4068,
      "max": [
        1204
      ],
      "min": [
        0
      ],
      "type": "SCALAR"
    },
    {
      "bufferView": 2,
      "byteOffset": 64704,
      "componentType": 5126,
      "count": 1205,
      "max": [
        -1.0935943126678467,
        3.2926619052886963,
        -0.18019008636474609
      ],
      "min": [
        -3.5550944805145264,
        0.046936273574829102,
        -2.2579054832458496
      ],
      "type": "VEC3"
    },
    {
      "bufferView": 2,
      "byteOffset": 79164,
      "componentType": 5126,
      "count": 1205,
      "max": [
        0.99189579486846924,
        0.98526161909103394,
        0.99940979480743408
      ],
      "min": [
        -0.98052167892456055,
        -0.98444360494613647,
        -0.98842531442642212
      ],
      "type": "VEC3"
    },
    {
      "bufferView": 3,
      "byteOffset": 43136,
      "componentType": 5126,
      "count": 1205,
      "max": [
        0.99835914373397827,
        0.99328869581222534,
        0.98026233911514282,
        1
      ],
      "min": [
        -0.9907192587852478,
        -0.99836015701293945,
        -0.99873322248458862,
        1
      ],
      "type": "VEC4"
    },
    {
      "bufferView": 1,
      "byteOffset": 21568,
      "componentType": 5126,
      "count": 1205,
      "max": [
        0.98478305339813232,
        0.98961758613586426
      ],
      "min": [
        0.0096898972988128662,
        0.012443423271179199
      ],
      "type": "VEC2"
    },
    {
      "bufferView": 0,
      "byteOffset": 38208,
      "componentType": 5125,
      "count": 4068,
      "max": [
        1204
      ],
      "min": [
        0
      ],
      "type": "SCALAR"
    },
    {
      "bufferView": 2,
      "byteOffset": 93624,
      "componentType": 5126,
      "count": 1205,
      "max": [
        1.0114474296569824,
        3.2926633358001709,
        -1.2827099561691284
      ],
      "min": [
        -0.89380991458892822,
        0.046935796737670898,
        -3.7418928146362305
      ],
      "type": "VEC3"
    },
    {
      "bufferView": 2,
      "byteOffset": 108084,
      "componentType": 5126,
      "count": 1205,
      "max": [
        0.98721295595169067,
        0.98526149988174438,
        0.99931532144546509
      ],
      "min": [
        -0.9858972430229187,
        -0.98444360494613647,
        -0.99949264526367188
      ],
      "type": "VEC3"
    },
    {
      "bufferView": 3,
      "byteOffset": 62416,
      "componentType": 5126,
      "count": 1205,
      "max": [
        0.99911373853683472,
        0.99328887462615967,
        0.96894222497940063,
        1
      ],
      "min": [
        -0.99988758563995361,
        -0.99836009740829468,
        -0.99832260608673096,
        1
      ],
      "type": "VEC4"
    },
    {
      "bufferView": 1,
      "byteOffset": 31208,
      "componentType": 5126,
      "count": 1205,
      "max": [
        0.98478305339813232,
        0.98961758613586426
      ],
      "min": [
        0.0096898972988128662,
        0.012443423271179199
      ],
      "type": "VEC2"
    },
    {
      "bufferView": 0,
      "byteOffset": 54480,
      "componentType": 5125,
      "count": 4068,
      "max": [
        1204
      ],
      "min": [
        0
      ],
      "type": "SCALAR"
    },
    {
      "bufferView": 2,
      "byteOffset": 122544,
      "componentType": 5126,
      "count": 1205,
      "max": [
        3.6302340030670166,
        3.2926628589630127,
        -0.15943488478660583
      ],
      "min": [
        1.0832788944244385,
        0.046935200691223145,
        -2.1469182968139648
      ],
      "type": "VEC3"
    },
    {
      "bufferView": 2,
      "byteOffset": 137004,
      "componentType": 5126,
      "count": 1205,
      "max": [
        0.98464322090148926,
        0.98526161909103394,
        0.99888569116592407
      ],
      "min": [
        -0.98965555429458618,
        -0.98444372415542603,
        -0.98135131597518921
      ],
      "type": "VEC3"
    },
    {
      "bufferView": 3,
      "byteOffset": 81696,
      "componentType": 5126,
      "count": 1205,
      "max": [
        0.99981111288070679,
        0.99328941106796265,
        0.99871653318405151,
        1
      ],
      "min": [
        -0.99745899438858032,
        -0.99836009740829468,
        -0.99223983287811279,
        1
      ],
      "type": "VEC4"
    },
    {
      "bufferView": 1,
      "byteOffset": 40848,
      "componentType": 5126,
      "count": 1205,
      "max": [
        0.98478305339813232,
        0.98961758613586426
      ],
      "min": [
        0.0096898972988128662,
        0.012443423271179199
      ],
      "type": "VEC2"
    },
    {
      "bufferView": 0,
      "byteOffset": 70752,
      "componentType": 5125,
      "count": 4068,
      "max": [
        1204
      ],
      "min": [
        0
      ],
      "type": "SCALAR"
    },
    {
      "bufferView": 2,
      "byteOffset": 151464,
      "componentType": 5126,
      "count": 1205,
      "max": [
        3.0771877765655518,
        3.2926630973815918,
        3.161062479019165
      ],
      "min": [
        0.67813479900360107,
        0.046935081481933594,
        0.68378424644470215
      ],
      "type": "VEC3"
    },
    {
      "bufferView": 2,
      "byteOffset": 165924,
      "componentType": 5126,
      "count": 1205,
      "max": [
        0.99681985378265381,
        0.98526155948638916,
        0.99663126468658447
      ],
      "min": [
        -0.9940679669380188,
        -0.98444360494613647,
        -0.98985123634338379
      ],
      "type": "VEC3"
    },
    {
      "bufferView": 3,
      "byteOffset": 100976,
      "componentType": 5126,
      "count": 1205,
      "max": [
        0.99099457263946533,
        0.99328917264938354,
        0.99925845861434937,
        1
      ],
      "min": [
        -0.99501913785934448,
        -0.99835997819900513,
        -0.97406870126724243,
        1
      ],
      "type": "VEC4"
    },
    {
      "bufferView": 1,
      "byteOffset": 50488,
      "componentType": 5126,
      "count": 1205,
      "max": [
        0.98478305339813232,
        0.98961758613586426
      ],
      "min": [
        0.0096898972988128662,
        0.012443423271179199
      ],
      "type": "VEC2"
    },
    {
      "bufferView": 0,
      "byteOffset": 87024,
      "componentType": 5125,
      "count": 4068,
      "max": [
        1204
      ],
      "min": [
        0
      ],
      "type": "SCALAR"
    }
  ],
  "asset": {
    "extras": {
      "author": "Denis Shikunov (https://sketchfab.com/felo3113)",
      "license": "CC-BY-4.0 (http://creativecommons.org/licenses/by/4.0/)",
      "source": "https://sketchfab.com/3d-models/robot-9bbe154a853f4fac94e20dfc77f5ee0c",
      "title": "Robot"
    },
    "generator": "Sketchfab-7.80.0",
    "version": "2.0"
  },
  "bufferViews": [
    {
      "buffer": 0,
      "byteLength": 103296,
      "byteOffset": 0,
      "name": "floatBufferViews",
      "target": 34963
    },
    {
      "buffer": 0,
      "byteLength": 60128,
      "byteOffset": 103296,
      "byteStride": 8,
      "name": "floatBufferViews",
      "target": 34962
    },
    {
      "buffer": 0,
      "byteLength": 180384,
      "byteOffset": 163424,
      "byteStride": 12,
      "name": "floatBufferViews",
      "target": 34962
    },
    {
      "buffer": 0,
      "byteLength": 120256,
      "byteOffset": 343808,
      "byteStride": 16,
      "name": "floatBufferViews",
      "target": 34962
    }
  ],
  "buffers": [
    {
      "byteLength": 464064,
      "uri": "scene.bin"
    }
  ],
  "images": [
    {
      "uri": "textures/Robo_baseColor.jpeg"
    },
    {
      "uri": "textures/Robo_metallicRoughness.png"
    },
    {
      "uri": "textures/Robo_emissive.jpeg"
    },
    {
      "uri": "textures/Robo_normal.png"
    }
  ],
  "materials": [
    {
      "doubleSided": true,
      "emissiveFactor": [
        1,
        1,
        1
      ],
      "emissiveTexture": {
        "index": 2,
        "texCoord": 0
      },
      "name": "Robo",
      "normalTexture": {
        "index": 3,
        "scale": 1,
        "texCoord": 0
      },
      "occlusionTexture": {
        "index": 1,
        "strength": 1,
        "texCoord": 0
      },
      "pbrMetallicRoughness": {
        "baseColorFactor": [
          1,
          1,
          1,
          1
        ],
        "baseColorTexture": {
          "index": 0,
          "texCoord": 0
        },
        "metallicFactor": 1,
        "metallicRoughnessTexture": {
          "index": 1,
          "texCoord": 0
        },
        "roughnessFactor": 1
      }
    }
  ],
  "meshes": [
    {
      "name": "head_Robo_0",
      "primitives": [
        {
          "attributes": {
            "NORMAL": 1,
            "POSITION": 0,
            "TANGENT": 2,
            "TEXCOORD_0": 3
          },
          "indices": 4,
          "material": 0,
          "mode": 4
        }
      ]
    },
    {
      "name": "body_Robo_0",
      "primitives": [
        {
          "attributes": {
            "NORMAL": 6,
            "POSITION": 5,
            "TANGENT": 7,
            "TEXCOORD_0": 8
          },
          "indices": 9,
          "material": 0,
          "mode": 4
        }
      ]
    },
    {
      "name": "r_f_leg_Robo_0",
      "primitives": [
        {
          "attributes": {
            "NORMAL": 11,
            "POSITION": 10,
            "TANGENT": 12,
            "TEXCOORD_0": 13
          },
          "indices": 14,
          "material": 0,
          "mode": 4
        }
      ]
    },
    {
      "name": "r_b_leg_Robo_0",
      "primitives": [
        {
          "attributes": {
            "NORMAL": 16,
            "POSITION": 15,
            "TANGENT": 17,
            "TEXCOORD_0": 18
          },
          "indices": 19,
          "material": 0,
          "mode": 4
        }
      ]
    },
    {
      "name": "rear_leg_Robo_0",
      "primitives": [
        {
          "attributes": {
            "NORMAL": 21,
            "POSITION": 20,
            "TANGENT": 22,
            "TEXCOORD_0": 23
          },
          "indices": 24,
          "material": 0,
          "mode": 4
        }
      ]
    },
    {
      "name": "l_b_leg_Robo_0",
      "primitives": [
        {
          "attributes": {
            "NORMAL": 26,
            "POSITION": 25,
            "TANGENT": 27,
            "TEXCOORD_0": 28
          },
          "indices": 29,
          "material": 0,
          "mode": 4
        }
      ]
    },
    {
      "name": "l_f_leg_Robo_0",
      "primitives": [
        {
          "attributes": {
            "NORMAL": 31,
            "POSITION": 30,
            "TANGENT": 32,
            "TEXCOORD_0": 33
          },
          "indices": 34,
          "material": 0,
          "mode": 4
        }
      ]
    }
  ],
  "nodes": [
    {
      "children": [
        1
      ],
      "name": "RootNode (gltf orientation matrix)",
      "rotation": [
        -0.70710678118654746,
        -0,
        -0,
        0.70710678118654757
      ]
    },
    {
      "children": [
        2
      ],
      "name": "RootNode (model correction matrix)"
    },
    {
      "children": [
        3
      ],
      "matrix": [
        1,
        0,
        0,
        0,
        0,
        0,
        1,
        0,
        0,
        -1,
        0,
        0,
        0,
        0,
        0,
        1
      ],
      "name": "Robot.fbx"
    },
    {
      "children": [
        4
      ],
      "name": "RootNode"
    },
    {
      "children": [
        5,
        7,
        9,
        11,
        13,
        15,
        17
      ],
      "name": "robot"
    },
    {
      "children": [
        6
      ],
      "name": "head"
    },
    {
      "mesh": 0,
      "name": "head_Robo_0"
    },
    {
      "children": [
        8
      ],
      "name": "body"
    },
    {
      "mesh": 1,
      "name": "body_Robo_0"
    },
    {
      "children": [
        10
      ],
      "name": "r_f_leg"
    },
    {
      "mesh": 2,
      "name": "r_f_leg_Robo_0"
    },
    {
      "children": [
        12
      ],
      "name": "r_b_leg"
    },
    {
      "mesh": 3,
      "name": "r_b_leg_Robo_0"
    },
    {
      "children": [
        14
      ],
      "name": "rear_leg"
    },
    {
      "mesh": 4,
      "name": "rear_leg_Robo_0"
    },
    {
      "children": [
        16
      ],
      "name": "l_b_leg"
    },
    {
      "mesh": 5,
      "name": "l_b_leg_Robo_0"
    },
    {
      "children": [
        18
      ],
      "name": "l_f_leg"
    },
    {
      "mesh": 6,
      "name": "l_f_leg_Robo_0"
    }
  ],
  "samplers": [
    {
      "magFilter": 9729,
      "minFilter": 9987,
      "wrapS": 10497,
      "wrapT": 10497
    }
  ],
  "scene": 0,
  "scenes": [
    {
      "name": "OSG_Scene",
      "nodes": [
        0
      ]
    }
  ],
  "textures": [
    {
      "sampler": 0,
      "source": 0
    },
    {
      "sampler": 0,
      "source": 1
    },
    {
      "sampler": 0,
      "source": 2
    },
    {
      "sampler": 0,
      "source": 3
    }
  ]
}

