{
  "accessors": [
    {
      "bufferView": 2,
      "componentType": 5126,
      "count": 4686,
      "max": [
        1.2199554443359375,
        0.2217784970998764,
        0.85079622268676758
      ],
      "min": [
        -1.2202903032302856,
        -0.012035004794597626,
        -0.85079622268676758
      ],
      "type": "VEC3"
    },
    {
      "bufferView": 2,
      "byteOffset": 56232,
      "componentType": 5126,
      "count": 4686,
      "max": [
        0.99958515167236328,
        0.99999654293060303,
        0.99976599216461182
      ],
      "min": [
        -0.99936246871948242,
        -0.99999982118606567,
        -0.99593442678451538
      ],
      "type": "VEC3"
    },
    {
      "bufferView": 3,
      "componentType": 5126,
      "count": 4686,
      "max": [
        0.99999880790710449,
        0.99974071979522705,
        0.98091238737106323,
        1
      ],
      "min": [
        -0.9273076057434082,
        -0.99998462200164795,
        -0.99999099969863892,
        -1
      ],
      "type": "VEC4"
    },
    {
      "bufferView": 1,
      "componentType": 5126,
      "count": 4686,
      "max": [
        0.99435961246490479,
        0.99444907903671265
      ],
      "min": [
        0.0078462595120072365,
        0.007551729679107666
      ],
      "type": "VEC2"
    },
    {
      "bufferView": 1,
      "byteOffset": 37488,
      "componentType": 5126,
      "count": 4686,
      "max": [
        0.99435961246490479,
        0.99444907903671265
      ],
      "min": [
        0.0078462595120072365,
        0.007551729679107666
      ],
      "type": "VEC2"
    },
    {
      "bufferView": 1,
      "byteOffset": 74976,
      "componentType": 5126,
      "count": 4686,
      "max": [
        0.99435961246490479,
        0.99444907903671265
      ],
      "min": [
        0.0078462595120072365,
        0.007551729679107666
      ],
      "type": "VEC2"
    },
    {
      "bufferView": 1,
      "byteOffset": 112464,
      "componentType": 5126,
      "count": 4686,
      "max": [
        0.99435961246490479,
        0.99444907903671265
      ],
      "min": [
        0.0078462595120072365,
        0.007551729679107666
      ],
      "type": "VEC2"
    },
    {
      "bufferView": 1,
      "byteOffset": 149952,
      "componentType": 5126,
      "count": 4686,
      "max": [
        0.99435961246490479,
        0.99444907903671265
      ],
      "min": [
        0.0078462595120072365,
        0.007551729679107666
      ],
      "type": "VEC2"
    },
    {
      "bufferView": 0,
      "componentType": 5125,
      "count": 25506,
      "max": [
        4685
      ],
      "min": [
        0
      ],
      "type": "SCALAR"
    }
  ],
  "asset": {
    "extras": {
      "author": "TheSitthikorn (https://sketchfab.com/TheSitthikorn)",
      "license": "CC-BY-ND-4.0 (http://creativecommons.org/licenses/by-nd/4.0/)",
      "source": "https://sketchfab.com/3d-models/slice-of-pizza-19ec07854f2f407aa4921027354d845f",
      "title": "Slice Of Pizza"
    },
    "generator": "Sketchfab-10.15.0",
    "version": "2.0"
  },
  "bufferViews": [
    {
      "buffer": 0,
      "byteLength": 102024,
      "byteOffset": 0,
      "name": "floatBufferViews",
      "target": 34963
    },
    {
      "buffer": 0,
      "byteLength": 187440,
      "byteOffset": 102024,
      "byteStride": 8,
      "name": "floatBufferViews",
      "target": 34962
    },
    {
      "buffer": 0,
      "byteLength": 112464,
      "byteOffset": 289464,
      "byteStride": 12,
      "name": "floatBufferViews",
      "target": 34962
    },
    {
      "buffer": 0,
      "byteLength": 74976,
      "byteOffset": 401928,
      "byteStride": 16,
      "name": "floatBufferViews",
      "target": 34962
    }
  ],
  "buffers": [
    {
      "byteLength": 476904,
      "uri": "scene.bin"
    }
  ],
  "extensionsRequired": [
    "KHR_materials_pbrSpecularGlossiness"
  ],
  "extensionsUsed": [
    "KHR_materials_pbrSpecularGlossiness"
  ],
  "images": [
    {
      "uri": "textures/material_0_diffuse.png"
    },
    {
      "uri": "textures/material_0_specularGlossiness.png"
    },
    {
      "uri": "textures/material_0_normal.png"
    },
    {
      "uri": "textures/material_0_occlusion.png"
    }
  ],
  "materials": [
    {
      "doubleSided": true,
      "emissiveFactor": [
        0,
        0,
        0
      ],
      "extensions": {
        "KHR_materials_pbrSpecularGlossiness": {
          "diffuseFactor": [
            1,
            1,
            1,
            1
          ],
          "diffuseTexture": {
            "index": 0,
            "texCoord": 0
          },
          "glossinessFactor": 1,
          "specularFactor": [
            1,
            1,
            1
          ],
          "specularGlossinessTexture": {
            "index": 1,
            "texCoord": 0
          }
        }
      },
      "name": "material_0",
      "normalTexture": {
        "index": 2,
        "scale": 1,
        "texCoord": 0
      },
      "occlusionTexture": {
        "index": 3,
        "strength": 1,
        "texCoord": 0
      }
    }
  ],
  "meshes": [
    {
      "primitives": [
        {
          "attributes": {
            "NORMAL": 1,
            "POSITION": 0,
            "TANGENT": 2,
            "TEXCOORD_0": 3,
            "TEXCOORD_1": 4,
            "TEXCOORD_2": 5,
            "TEXCOORD_3": 6,
            "TEXCOORD_4": 7
          },
          "indices": 8,
          "material": 0,
          "mode": 4
        }
      ]
    }
  ],
  "nodes": [
    {
      "children": [
        1
      ],
      "name": "RootNode (gltf orientation matrix)",
      "rotation": [
        -0.70710678118654746,
        -0,
        -0,
        0.70710678118654757
      ]
    },
    {
      "children": [
        2
      ],
      "name": "RootNode (model correction matrix)"
    },
    {
      "children": [
        3
      ],
      "name": "root"
    },
    {
      "children": [
        4
      ],
      "matrix": [
        1,
        0,
        0,
        0,
        0,
        2.2204460492503131e-16,
        1,
        0,
        0,
        -1,
        2.2204460492503131e-16,
        0,
        0,
        0,
        0,
        1
      ],
      "name": "GLTF_SceneRootNode"
    },
    {
      "children": [
        5
      ],
      "matrix": [
        0.0099999997764825821,
        0,
        0,
        0,
        0,
        0.0099999997764825821,
        0,
        0,
        0,
        0,
        0.0099999997764825821,
        0,
        0,
        0,
        0,
        1
      ],
      "name": "RootNode.0_0"
    },
    {
      "children": [
        6
      ],
      "name": "slice_of_pizza.1_1"
    },
    {
      "mesh": 0,
      "name": ""
    }
  ],
  "samplers": [
    {
      "magFilter": 9729,
      "minFilter": 9987,
      "wrapS": 10497,
      "wrapT": 10497
    }
  ],
  "scene": 0,
  "scenes": [
    {
      "name": "OSG_Scene",
      "nodes": [
        0
      ]
    }
  ],
  "textures": [
    {
      "sampler": 0,
      "source": 0
    },
    {
      "sampler": 0,
      "source": 1
    },
    {
      "sampler": 0,
      "source": 2
    },
    {
      "sampler": 0,
      "source": 3
    }
  ]
}

