{
  "accessors": [
    {
      "bufferView": 2,
      "componentType": 5126,
      "count": 24,
      "max": [
        1,
        -0.077948100864887238,
        1
      ],
      "min": [
        -1,
        -0.077948100864887238,
        -1
      ],
      "type": "VEC3"
    },
    {
      "bufferView": 2,
      "byteOffset": 288,
      "componentType": 5126,
      "count": 24,
      "max": [
        0,
        1,
        6.123230292458899e-17
      ],
      "min": [
        0,
        1,
        6.123230292458899e-17
      ],
      "type": "VEC3"
    },
    {
      "bufferView": 3,
      "componentType": 5126,
      "count": 24,
      "max": [
        3.3793101010815008e-06,
        -6.123230292458899e-17,
        1,
        1
      ],
      "min": [
        -8.4482900319926557e-07,
        -6.123230292458899e-17,
        1,
        1
      ],
      "type": "VEC4"
    },
    {
      "bufferView": 1,
      "componentType": 5126,
      "count": 24,
      "max": [
        1,
        1
      ],
      "min": [
        0,
        0
      ],
      "type": "VEC2"
    },
    {
      "bufferView": 0,
      "componentType": 5125,
      "count": 66,
      "max": [
        23
      ],
      "min": [
        0
      ],
      "type": "SCALAR"
    },
    {
      "bufferView": 2,
      "byteOffset": 576,
      "componentType": 5126,
      "count": 353,
      "max": [
        0.48482599854469299,
        -0.0090584699064493179,
        -0.20495800673961639
      ],
      "min": [
        0.25462201237678528,
        -0.045709099620580673,
        -0.42135098576545715
      ],
      "type": "VEC3"
    },
    {
      "bufferView": 2,
      "byteOffset": 4812,
      "componentType": 5126,
      "count": 353,
      "max": [
        0.97493845224380493,
        0.99340713024139404,
        1
      ],
      "min": [
        -0.97493845224380493,
        -0.99340713024139404,
        -1
      ],
      "type": "VEC3"
    },
    {
      "bufferView": 3,
      "byteOffset": 384,
      "componentType": 5126,
      "count": 353,
      "max": [
        0.99340701103210449,
        0.99973797798156738,
        0.99993002414703369,
        1
      ],
      "min": [
        -1,
        -0.99971300363540649,
        -1,
        1
      ],
      "type": "VEC4"
    },
    {
      "bufferView": 1,
      "byteOffset": 192,
      "componentType": 5126,
      "count": 353,
      "max": [
        0.90284299850463867,
        1
      ],
      "min": [
        0,
        0
      ],
      "type": "VEC2"
    },
    {
      "bufferView": 0,
      "byteOffset": 264,
      "componentType": 5125,
      "count": 840,
      "max": [
        352
      ],
      "min": [
        0
      ],
      "type": "SCALAR"
    },
    {
      "bufferView": 2,
      "byteOffset": 9048,
      "componentType": 5126,
      "count": 3847,
      "max": [
        0.4739220142364502,
        -0.011884599924087524,
        -0.2369219958782196
      ],
      "min": [
        -0.18061299622058868,
        -0.043320599943399429,
        -0.74007397890090942
      ],
      "type": "VEC3"
    },
    {
      "bufferView": 2,
      "byteOffset": 55212,
      "componentType": 5126,
      "count": 3847,
      "max": [
        1,
        1,
        0.99970722198486328
      ],
      "min": [
        -1,
        -1,
        -0.99971163272857666
      ],
      "type": "VEC3"
    },
    {
      "bufferView": 3,
      "byteOffset": 6032,
      "componentType": 5126,
      "count": 3847,
      "max": [
        0.99988901615142822,
        0.99894797801971436,
        1,
        1
      ],
      "min": [
        -0.9997829794883728,
        -0.99838799238204956,
        -1,
        -1
      ],
      "type": "VEC4"
    },
    {
      "bufferView": 1,
      "byteOffset": 3016,
      "componentType": 5126,
      "count": 3847,
      "max": [
        0.99000000953674316,
        0.98720502853393555
      ],
      "min": [
        0.0099999997764825821,
        0.0099999997764825821
      ],
      "type": "VEC2"
    },
    {
      "bufferView": 0,
      "byteOffset": 3624,
      "componentType": 5125,
      "count": 16416,
      "max": [
        3846
      ],
      "min": [
        0
      ],
      "type": "SCALAR"
    },
    {
      "bufferView": 2,
      "byteOffset": 101376,
      "componentType": 5126,
      "count": 100,
      "max": [
        0.64350497722625732,
        0.012599299661815166,
        0.22021600604057312
      ],
      "min": [
        -0.6681709885597229,
        -0.076104499399662018,
        -0.22932000458240509
      ],
      "type": "VEC3"
    },
    {
      "bufferView": 2,
      "byteOffset": 102576,
      "componentType": 5126,
      "count": 100,
      "max": [
        0.97443073987960815,
        0.98475712537765503,
        0.97445309162139893
      ],
      "min": [
        -0.97443073987960815,
        -0.98475736379623413,
        -0.97445309162139893
      ],
      "type": "VEC3"
    },
    {
      "bufferView": 3,
      "byteOffset": 67584,
      "componentType": 5126,
      "count": 100,
      "max": [
        0.99961197376251221,
        0.98689401149749756,
        0.68790602684020996,
        1
      ],
      "min": [
        -0.98091500997543335,
        -0.98688298463821411,
        -0.687857985496521,
        1
      ],
      "type": "VEC4"
    },
    {
      "bufferView": 1,
      "byteOffset": 33792,
      "componentType": 5126,
      "count": 100,
      "max": [
        0.9937019944190979,
        0.71394699811935425
      ],
      "min": [
        0.0091454396024346352,
        0.010705900378525257
      ],
      "type": "VEC2"
    },
    {
      "bufferView": 0,
      "byteOffset": 69288,
      "componentType": 5125,
      "count": 420,
      "max": [
        99
      ],
      "min": [
        0
      ],
      "type": "SCALAR"
    },
    {
      "bufferView": 2,
      "byteOffset": 103776,
      "componentType": 5126,
      "count": 3398,
      "max": [
        0.63026297092437744,
        0.077948100864887238,
        0.20348000526428223
      ],
      "min": [
        -0.65460300445556641,
        0.027940699830651283,
        -0.21729899942874908
      ],
      "type": "VEC3"
    },
    {
      "bufferView": 2,
      "byteOffset": 144552,
      "componentType": 5126,
      "count": 3398,
      "max": [
        0.91816526651382446,
        1,
        0.95031309127807617
      ],
      "min": [
        -0.91816526651382446,
        0.3112960159778595,
        -0.95031309127807617
      ],
      "type": "VEC3"
    },
    {
      "bufferView": 3,
      "byteOffset": 69184,
      "componentType": 5126,
      "count": 3398,
      "max": [
        -0.3442080020904541,
        0.93350601196289062,
        0.56696802377700806,
        1
      ],
      "min": [
        -0.99999898672103882,
        -0.93350702524185181,
        -0.57288199663162231,
        1
      ],
      "type": "VEC4"
    },
    {
      "bufferView": 1,
      "byteOffset": 34592,
      "componentType": 5126,
      "count": 3398,
      "max": [
        0.98423498868942261,
        0.97658300399780273
      ],
      "min": [
        0.017410900443792343,
        0.32305699586868286
      ],
      "type": "VEC2"
    },
    {
      "bufferView": 0,
      "byteOffset": 70968,
      "componentType": 5125,
      "count": 15024,
      "max": [
        3397
      ],
      "min": [
        0
      ],
      "type": "SCALAR"
    },
    {
      "bufferView": 2,
      "byteOffset": 185328,
      "componentType": 5126,
      "count": 15652,
      "max": [
        0.6180959939956665,
        0.06967490166425705,
        0.19286899268627167
      ],
      "min": [
        -0.64309400320053101,
        0.0085533000528812408,
        -0.20594899356365204
      ],
      "type": "VEC3"
    },
    {
      "bufferView": 2,
      "byteOffset": 373152,
      "componentType": 5126,
      "count": 15652,
      "max": [
        1,
        1,
        1
      ],
      "min": [
        -1,
        -1.8934599665954011e-08,
        -1
      ],
      "type": "VEC3"
    },
    {
      "bufferView": 3,
      "byteOffset": 123552,
      "componentType": 5126,
      "count": 15652,
      "max": [
        1,
        1,
        1,
        1
      ],
      "min": [
        -1,
        -3.8828099491183821e-07,
        -1,
        1
      ],
      "type": "VEC4"
    },
    {
      "bufferView": 1,
      "byteOffset": 61776,
      "componentType": 5126,
      "count": 15652,
      "max": [
        0.99000000953674316,
        0.97839397192001343
      ],
      "min": [
        0.0099999997764825821,
        0.0099999997764825821
      ],
      "type": "VEC2"
    },
    {
      "bufferView": 0,
      "byteOffset": 131064,
      "componentType": 5125,
      "count": 28800,
      "max": [
        15651
      ],
      "min": [
        0
      ],
      "type": "SCALAR"
    }
  ],
  "asset": {
    "extras": {
      "author": "paskaraita (https://sketchfab.com/paskaraita)",
      "license": "CC-BY-NC-4.0 (http://creativecommons.org/licenses/by-nc/4.0/)",
      "source": "https://sketchfab.com/models/1facc22c744a403dbb3166a2274f78dd",
      "title": "Mechanical Keyboard"
    },
    "generator": "Sketchfab-4.7.0",
    "version": "2.0"
  },
  "bufferViews": [
    {
      "buffer": 0,
      "byteLength": 246264,
      "byteOffset": 0,
      "name": "floatBufferViews",
      "target": 34963
    },
    {
      "buffer": 0,
      "byteLength": 186992,
      "byteOffset": 246264,
      "byteStride": 8,
      "name": "floatBufferViews",
      "target": 34962
    },
    {
      "buffer": 0,
      "byteLength": 560976,
      "byteOffset": 433256,
      "byteStride": 12,
      "name": "floatBufferViews",
      "target": 34962
    },
    {
      "buffer": 0,
      "byteLength": 373984,
      "byteOffset": 994232,
      "byteStride": 16,
      "name": "floatBufferViews",
      "target": 34962
    }
  ],
  "buffers": [
    {
      "byteLength": 1368216,
      "uri": "scene.bin"
    }
  ],
  "images": [
    {
      "uri": "textures/09___Default_metallicRoughness.png"
    },
    {
      "uri": "textures/09___Default_baseColor.jpeg"
    },
    {
      "uri": "textures/09___Default_normal.jpeg"
    },
    {
      "uri": "textures/03___Default_metallicRoughness.png"
    },
    {
      "uri": "textures/03___Default_normal.jpeg"
    },
    {
      "uri": "textures/08___Default_metallicRoughness.png"
    },
    {
      "uri": "textures/08___Default_baseColor.jpeg"
    },
    {
      "uri": "textures/08___Default_normal.jpeg"
    },
    {
      "uri": "textures/02___Default_metallicRoughness.png"
    },
    {
      "uri": "textures/02___Default_baseColor.jpeg"
    },
    {
      "uri": "textures/02___Default_normal.jpeg"
    },
    {
      "uri": "textures/07___Default_metallicRoughness.png"
    },
    {
      "uri": "textures/07___Default_baseColor.jpeg"
    },
    {
      "uri": "textures/07___Default_normal.jpeg"
    },
    {
      "uri": "textures/01___Default_metallicRoughness.png"
    },
    {
      "uri": "textures/01___Default_baseColor.jpeg"
    },
    {
      "uri": "textures/01___Default_normal.jpeg"
    }
  ],
  "materials": [
    {
      "doubleSided": true,
      "name": "01___Default",
      "normalTexture": {
        "index": 16,
        "scale": 1,
        "texCoord": 0
      },
      "occlusionTexture": {
        "index": 14,
        "strength": 1,
        "texCoord": 0
      },
      "pbrMetallicRoughness": {
        "baseColorFactor": [
          1,
          1,
          1,
          1
        ],
        "baseColorTexture": {
          "index": 15,
          "texCoord": 0
        },
        "metallicFactor": 1,
        "metallicRoughnessTexture": {
          "index": 14,
          "texCoord": 0
        },
        "roughnessFactor": 1
      }
    },
    {
      "doubleSided": true,
      "name": "07___Default",
      "normalTexture": {
        "index": 13,
        "scale": 1,
        "texCoord": 0
      },
      "occlusionTexture": {
        "index": 11,
        "strength": 1,
        "texCoord": 0
      },
      "pbrMetallicRoughness": {
        "baseColorFactor": [
          1,
          1,
          1,
          1
        ],
        "baseColorTexture": {
          "index": 12,
          "texCoord": 0
        },
        "metallicFactor": 1,
        "metallicRoughnessTexture": {
          "index": 11,
          "texCoord": 0
        },
        "roughnessFactor": 1
      }
    },
    {
      "doubleSided": true,
      "name": "08___Default",
      "normalTexture": {
        "index": 7,
        "scale": 1,
        "texCoord": 0
      },
      "occlusionTexture": {
        "index": 5,
        "strength": 1,
        "texCoord": 0
      },
      "pbrMetallicRoughness": {
        "baseColorFactor": [
          1,
          1,
          1,
          1
        ],
        "baseColorTexture": {
          "index": 6,
          "texCoord": 0
        },
        "metallicFactor": 1,
        "metallicRoughnessTexture": {
          "index": 5,
          "texCoord": 0
        },
        "roughnessFactor": 1
      }
    },
    {
      "doubleSided": true,
      "name": "02___Default",
      "normalTexture": {
        "index": 10,
        "scale": 1,
        "texCoord": 0
      },
      "pbrMetallicRoughness": {
        "baseColorFactor": [
          1,
          1,
          1,
          1
        ],
        "baseColorTexture": {
          "index": 9,
          "texCoord": 0
        },
        "metallicFactor": 1,
        "metallicRoughnessTexture": {
          "index": 8,
          "texCoord": 0
        },
        "roughnessFactor": 1
      }
    },
    {
      "doubleSided": true,
      "name": "09___Default",
      "normalTexture": {
        "index": 2,
        "scale": 1,
        "texCoord": 0
      },
      "occlusionTexture": {
        "index": 0,
        "strength": 1,
        "texCoord": 0
      },
      "pbrMetallicRoughness": {
        "baseColorFactor": [
          1,
          1,
          1,
          1
        ],
        "baseColorTexture": {
          "index": 1,
          "texCoord": 0
        },
        "metallicFactor": 1,
        "metallicRoughnessTexture": {
          "index": 0,
          "texCoord": 0
        },
        "roughnessFactor": 1
      }
    },
    {
      "alphaMode": "BLEND",
      "doubleSided": true,
      "name": "03___Default",
      "normalTexture": {
        "index": 4,
        "scale": 1,
        "texCoord": 0
      },
      "pbrMetallicRoughness": {
        "baseColorFactor": [
          1,
          1,
          1,
          0.0078125
        ],
        "metallicFactor": 1,
        "metallicRoughnessTexture": {
          "index": 3,
          "texCoord": 0
        },
        "roughnessFactor": 1
      }
    }
  ],
  "meshes": [
    {
      "name": "defaultMaterial",
      "primitives": [
        {
          "attributes": {
            "NORMAL": 1,
            "POSITION": 0,
            "TANGENT": 2,
            "TEXCOORD_0": 3
          },
          "indices": 4,
          "material": 5,
          "mode": 4
        }
      ]
    },
    {
      "name": "defaultMaterial",
      "primitives": [
        {
          "attributes": {
            "NORMAL": 6,
            "POSITION": 5,
            "TANGENT": 7,
            "TEXCOORD_0": 8
          },
          "indices": 9,
          "material": 4,
          "mode": 4
        }
      ]
    },
    {
      "name": "defaultMaterial",
      "primitives": [
        {
          "attributes": {
            "NORMAL": 11,
            "POSITION": 10,
            "TANGENT": 12,
            "TEXCOORD_0": 13
          },
          "indices": 14,
          "material": 3,
          "mode": 4
        }
      ]
    },
    {
      "name": "defaultMaterial",
      "primitives": [
        {
          "attributes": {
            "NORMAL": 16,
            "POSITION": 15,
            "TANGENT": 17,
            "TEXCOORD_0": 18
          },
          "indices": 19,
          "material": 2,
          "mode": 4
        }
      ]
    },
    {
      "name": "defaultMaterial",
      "primitives": [
        {
          "attributes": {
            "NORMAL": 21,
            "POSITION": 20,
            "TANGENT": 22,
            "TEXCOORD_0": 23
          },
          "indices": 24,
          "material": 1,
          "mode": 4
        }
      ]
    },
    {
      "name": "defaultMaterial",
      "primitives": [
        {
          "attributes": {
            "NORMAL": 26,
            "POSITION": 25,
            "TANGENT": 27,
            "TEXCOORD_0": 28
          },
          "indices": 29,
          "material": 0,
          "mode": 4
        }
      ]
    }
  ],
  "nodes": [
    {
      "children": [
        1
      ],
      "name": "RootNode (gltf orientation matrix)",
      "rotation": [
        -0.70710678118654746,
        -0,
        -0,
        0.70710678118654757
      ]
    },
    {
      "children": [
        2
      ],
      "name": "RootNode (model correction matrix)"
    },
    {
      "children": [
        3,
        5,
        7,
        9,
        11,
        13
      ],
      "matrix": [
        1,
        0,
        0,
        0,
        0,
        -4.3711390063094768e-08,
        0.999999999999999,
        0,
        0,
        -0.999999999999999,
        -4.3711390063094768e-08,
        0,
        0,
        0,
        0,
        1
      ],
      "name": "Collada visual scene group"
    },
    {
      "children": [
        4
      ],
      "name": "Cylinder001"
    },
    {
      "mesh": 0,
      "name": "defaultMaterial"
    },
    {
      "children": [
        6
      ],
      "name": "USBLP"
    },
    {
      "mesh": 1,
      "name": "defaultMaterial"
    },
    {
      "children": [
        8
      ],
      "name": "Line001"
    },
    {
      "mesh": 2,
      "name": "defaultMaterial"
    },
    {
      "children": [
        10
      ],
      "name": "pohjaLP"
    },
    {
      "mesh": 3,
      "name": "defaultMaterial"
    },
    {
      "children": [
        12
      ],
      "name": "KeyLP"
    },
    {
      "mesh": 4,
      "name": "defaultMaterial"
    },
    {
      "children": [
        14
      ],
      "name": "Cherry"
    },
    {
      "mesh": 5,
      "name": "defaultMaterial"
    }
  ],
  "samplers": [
    {
      "magFilter": 9729,
      "minFilter": 9987,
      "wrapS": 10497,
      "wrapT": 10497
    }
  ],
  "scene": 0,
  "scenes": [
    {
      "name": "OSG_Scene",
      "nodes": [
        0
      ]
    }
  ],
  "textures": [
    {
      "sampler": 0,
      "source": 0
    },
    {
      "sampler": 0,
      "source": 1
    },
    {
      "sampler": 0,
      "source": 2
    },
    {
      "sampler": 0,
      "source": 3
    },
    {
      "sampler": 0,
      "source": 4
    },
    {
      "sampler": 0,
      "source": 5
    },
    {
      "sampler": 0,
      "source": 6
    },
    {
      "sampler": 0,
      "source": 7
    },
    {
      "sampler": 0,
      "source": 8
    },
    {
      "sampler": 0,
      "source": 9
    },
    {
      "sampler": 0,
      "source": 10
    },
    {
      "sampler": 0,
      "source": 11
    },
    {
      "sampler": 0,
      "source": 12
    },
    {
      "sampler": 0,
      "source": 13
    },
    {
      "sampler": 0,
      "source": 14
    },
    {
      "sampler": 0,
      "source": 15
    },
    {
      "sampler": 0,
      "source": 16
    }
  ]
}

