{
  "accessors": [
    {
      "bufferView": 2,
      "componentType": 5126,
      "count": 14051,
      "max": [
        4.7281622886657715,
        10.515154838562012,
        5.5973572731018066
      ],
      "min": [
        -4.6674809455871582,
        0,
        -5.5973572731018066
      ],
      "type": "VEC3"
    },
    {
      "bufferView": 2,
      "byteOffset": 168612,
      "componentType": 5126,
      "count": 14051,
      "max": [
        1,
        1,
        1
      ],
      "min": [
        -1,
        -1,
        -1
      ],
      "type": "VEC3"
    },
    {
      "bufferView": 1,
      "componentType": 5126,
      "count": 14051,
      "max": [
        0.9885750412940979,
        0.99048566818237305
      ],
      "min": [
        0.012467175722122192,
        0.0070140361785888672
      ],
      "type": "VEC2"
    },
    {
      "bufferView": 1,
      "byteOffset": 112408,
      "componentType": 5126,
      "count": 14051,
      "max": [
        0.9885750412940979,
        0.99048566818237305
      ],
      "min": [
        0.012467175722122192,
        0.0070140361785888672
      ],
      "type": "VEC2"
    },
    {
      "bufferView": 1,
      "byteOffset": 224816,
      "componentType": 5126,
      "count": 14051,
      "max": [
        0.9885750412940979,
        0.99048566818237305
      ],
      "min": [
        0.012467175722122192,
        0.0070140361785888672
      ],
      "type": "VEC2"
    },
    {
      "bufferView": 0,
      "componentType": 5125,
      "count": 76992,
      "max": [
        14050
      ],
      "min": [
        0
      ],
      "type": "SCALAR"
    }
  ],
  "asset": {
    "extras": {
      "author": "holger.traeger (https://sketchfab.com/holger.traeger)",
      "license": "CC-BY-4.0 (http://creativecommons.org/licenses/by/4.0/)",
      "source": "https://sketchfab.com/3d-models/atom-1ba1cf4d360844f0a8ca231eae30ac1f",
      "title": "Atom"
    },
    "generator": "Sketchfab-9.83.0",
    "version": "2.0"
  },
  "bufferViews": [
    {
      "buffer": 0,
      "byteLength": 307968,
      "byteOffset": 0,
      "name": "floatBufferViews",
      "target": 34963
    },
    {
      "buffer": 0,
      "byteLength": 337224,
      "byteOffset": 307968,
      "byteStride": 8,
      "name": "floatBufferViews",
      "target": 34962
    },
    {
      "buffer": 0,
      "byteLength": 337224,
      "byteOffset": 645192,
      "byteStride": 12,
      "name": "floatBufferViews",
      "target": 34962
    }
  ],
  "buffers": [
    {
      "byteLength": 982416,
      "uri": "scene.bin"
    }
  ],
  "extensionsRequired": [
    "KHR_materials_pbrSpecularGlossiness"
  ],
  "extensionsUsed": [
    "KHR_materials_pbrSpecularGlossiness"
  ],
  "images": [
    {
      "uri": "textures/material_diffuse.png"
    },
    {
      "uri": "textures/material_specularGlossiness.png"
    }
  ],
  "materials": [
    {
      "doubleSided": true,
      "emissiveFactor": [
        0,
        0,
        0
      ],
      "extensions": {
        "KHR_materials_pbrSpecularGlossiness": {
          "diffuseFactor": [
            1,
            1,
            1,
            1
          ],
          "diffuseTexture": {
            "index": 0,
            "texCoord": 0
          },
          "glossinessFactor": 1,
          "specularFactor": [
            1,
            1,
            1
          ],
          "specularGlossinessTexture": {
            "index": 1,
            "texCoord": 0
          }
        }
      },
      "name": "material"
    }
  ],
  "meshes": [
    {
      "primitives": [
        {
          "attributes": {
            "NORMAL": 1,
            "POSITION": 0,
            "TEXCOORD_0": 2,
            "TEXCOORD_1": 3,
            "TEXCOORD_2": 4
          },
          "indices": 5,
          "material": 0,
          "mode": 4
        }
      ]
    }
  ],
  "nodes": [
    {
      "children": [
        1
      ],
      "name": "RootNode (gltf orientation matrix)",
      "rotation": [
        -0.70710678118654746,
        -0,
        -0,
        0.70710678118654757
      ]
    },
    {
      "children": [
        2
      ],
      "name": "RootNode (model correction matrix)"
    },
    {
      "children": [
        3
      ],
      "name": "root"
    },
    {
      "children": [
        4
      ],
      "matrix": [
        1,
        0,
        0,
        0,
        0,
        2.2204460492503131e-16,
        1,
        0,
        0,
        -1,
        2.2204460492503131e-16,
        0,
        0,
        0,
        0,
        1
      ],
      "name": "GLTF_SceneRootNode"
    },
    {
      "children": [
        5
      ],
      "name": "root_0"
    },
    {
      "children": [
        6
      ],
      "matrix": [
        0.048691634088754654,
        0,
        0,
        0,
        0,
        0.048691634088754654,
        0,
        0,
        0,
        0,
        0.048691634088754654,
        0,
        -0.0014773765578866005,
        -0.25600028038024902,
        0.27254447340965271,
        1
      ],
      "name": "node_id30_1"
    },
    {
      "mesh": 0,
      "name": ""
    }
  ],
  "samplers": [
    {
      "magFilter": 9729,
      "minFilter": 9987,
      "wrapS": 10497,
      "wrapT": 10497
    }
  ],
  "scene": 0,
  "scenes": [
    {
      "name": "OSG_Scene",
      "nodes": [
        0
      ]
    }
  ],
  "textures": [
    {
      "sampler": 0,
      "source": 0
    },
    {
      "sampler": 0,
      "source": 1
    }
  ]
}

